<svg xmlns="http://www.w3.org/2000/svg" width="14.137" height="14.137" viewBox="0 0 14.137 14.137"><defs><style>.a{fill:#72767d;}</style></defs><path class="a" d="M7.7,14.137H6.437V12.813A5.549,5.549,0,0,1,4,11.966a5.9,5.9,0,0,1-1.817-1.825A5.754,5.754,0,0,1,1.324,7.7H0V6.437H1.324A5.755,5.755,0,0,1,2.187,4,5.9,5.9,0,0,1,4,2.171a5.548,5.548,0,0,1,2.433-.847V0H7.7V1.324a5.606,5.606,0,0,1,2.441.847A5.881,5.881,0,0,1,11.966,4a5.6,5.6,0,0,1,.847,2.441h1.324V7.7H12.813a5.606,5.606,0,0,1-.847,2.441,5.881,5.881,0,0,1-1.825,1.825,5.6,5.6,0,0,1-2.441.847v1.324ZM7.069,2.587a4.44,4.44,0,0,0-2.264.6A4.549,4.549,0,0,0,3.188,4.8a4.566,4.566,0,0,0,0,4.528A4.549,4.549,0,0,0,4.8,10.949a4.566,4.566,0,0,0,4.528,0,4.549,4.549,0,0,0,1.617-1.617,4.566,4.566,0,0,0,0-4.528A4.549,4.549,0,0,0,9.333,3.188,4.44,4.44,0,0,0,7.069,2.587Z"/></svg>