<svg xmlns="http://www.w3.org/2000/svg" width="33.543" height="34.291" viewBox="0 0 33.543 34.291"><defs><style>.a{fill:#a1a9b3;}</style></defs><g transform="translate(-20.7 -10)"><g transform="translate(20.7 10)"><path class="a" d="M612.985-500.943c-.194.032-.226.065-.194.21.024.1.073.388.105.647l.057.477.242-.049a3.962,3.962,0,0,1,.59-.049h.356V-501l-.461.008C613.421-500.984,613.106-500.959,612.985-500.943Z" transform="translate(-592.062 501)"/><path class="a" d="M721.192-488.916a5.569,5.569,0,0,0-.162.606,4.779,4.779,0,0,0,1.1.4,7.332,7.332,0,0,0,.517-1.132,6.246,6.246,0,0,0-1.246-.4A2.423,2.423,0,0,0,721.192-488.916Z" transform="translate(-696.525 489.854)"/><path class="a" d="M502.421-479.455l-.5.251.251.558a1.47,1.47,0,0,0,.324.55,4.84,4.84,0,0,0,1.027-.469c0-.024-.073-.291-.162-.59C503.165-479.811,503.133-479.819,502.421-479.455Z" transform="translate(-485.082 480.442)"/><path class="a" d="M168.62-444.883v.647h6.47v-1.294h-6.47Z" transform="translate(-163.444 447.471)"/><path class="a" d="M816.36-440.781l-.34.534.178.121a4.045,4.045,0,0,1,.437.356c.138.129.291.226.331.21a3.349,3.349,0,0,0,.453-.477l.38-.445-.348-.307a4.549,4.549,0,0,0-.558-.421C816.691-441.314,816.683-441.306,816.36-440.781Z" transform="translate(-788.191 443.353)"/><path class="a" d="M406.961-422.4l-.5.469.493.437.493.429.437-.429.437-.437-.421-.469-.429-.477Z" transform="translate(-392.962 425.613)"/><path class="a" d="M168.62-369.022v2.548h1.294v-1.051c0-1.019.008-1.068.2-1.254.194-.2.21-.2,1.739-.2s1.545,0,1.739.2c.194.186.2.234.2,1.254v1.051h1.294v-5.1h-6.47Z" transform="translate(-163.444 376.099)"/><path class="a" d="M891.514-359.719c-.242.162-.477.324-.518.356s.089.283.267.558l.34.493.566-.291c.316-.154.558-.307.542-.348a8.537,8.537,0,0,0-.712-1.06A3.538,3.538,0,0,0,891.514-359.719Z" transform="translate(-860.539 364.943)"/><path class="a" d="M242.58-260.014v.606h1.294v-1.213H242.58Z" transform="translate(-234.816 269.031)"/><path class="a" d="M936.686-255.6a4.39,4.39,0,0,0-.518.194,3.806,3.806,0,0,0,.073.6c.1.574.105.582.324.542.121-.024.413-.073.639-.105l.421-.057-.049-.332c-.1-.631-.218-1.019-.315-1.011A4.635,4.635,0,0,0,936.686-255.6Z" transform="translate(-904.134 264.354)"/><path class="a" d="M21.274-188.833a1.269,1.269,0,0,0-.421.38c-.146.234-.154.461-.154,3.138v2.9h3.866l.033-1.2a3.492,3.492,0,0,1,.178-1.472,2.516,2.516,0,0,1,.979-.995c.315-.17.4-.178,3.356-.178,2.976,0,3.041,0,3.364.178a2.467,2.467,0,0,1,.623.518c.436.51.542.906.542,2.111v1.035h3.882v-2.855c0-3.187-.008-3.259-.566-3.551-.267-.138-.663-.146-7.845-.146C22.22-188.97,21.525-188.954,21.274-188.833Z" transform="translate(-20.7 199.888)"/><path class="a" d="M939.246-142.75a4.783,4.783,0,0,1-.1.6c-.024.1.121.162.606.291l.647.17.041-.291c.178-1.189.234-1.092-.615-1.181l-.526-.057Z" transform="translate(-907.009 155.739)"/><path class="a" d="M169.025-75.864c-.332.17-.4.421-.4,1.488v.995h6.47v-.971c0-1.06-.073-1.327-.413-1.5A33.844,33.844,0,0,0,169.025-75.864Z" transform="translate(-163.444 90.851)"/><path class="a" d="M902.369-40.555a1.492,1.492,0,0,0-.226.558,3.369,3.369,0,0,0,.526.356l.485.291.251-.413c.477-.768.477-.768-.129-1.035a4.774,4.774,0,0,0-.582-.242A1.828,1.828,0,0,0,902.369-40.555Z" transform="translate(-871.296 57.135)"/><path class="a" d="M649.38-1.1v.647h3.882V-1.75H649.38Z" transform="translate(-627.382 19.219)"/><path class="a" d="M20.7,41.473c0,6.058.008,6.26.162,6.51.251.421.526.509,1.537.509h.889V44.086c0-4.2.008-4.424.162-4.828a2.59,2.59,0,0,1,1.132-1.245c.267-.146.55-.154,4.529-.154,4.222,0,4.246,0,4.578.178a2.6,2.6,0,0,1,1.124,1.343,29.414,29.414,0,0,1,.121,4.764v4.351h.889c1.011,0,1.286-.089,1.537-.509.154-.251.162-.453.162-6.51V35.23H20.7Z" transform="translate(-20.7 -16.467)"/><path class="a" d="M538.43,74.151v1.941h3.882v-.445c0-.372.033-.485.2-.647.194-.2.21-.2,1.739-.2s1.544,0,1.739.2c.17.162.2.275.2.647v.445H548.6c2.823,0,2.96-.024,3.518-.647.461-.518.542-.817.542-2.135v-1.1H538.43Z" transform="translate(-520.314 -52.153)"/><path class="a" d="M132.149,146.425a1.094,1.094,0,0,0-.509.906v.307H140.7v-.283a1.39,1.39,0,0,0-.121-.526c-.251-.485-.226-.485-4.424-.477C134.05,146.352,132.247,146.385,132.149,146.425Z" transform="translate(-127.758 -123.699)"/><path class="a" d="M686.36,183.8v.647h1.294V183.15H686.36Z" transform="translate(-663.068 -159.211)"/><path class="a" d="M552.391,201.8a3.754,3.754,0,0,1-.76.324,9.887,9.887,0,0,1-2.968.162H546.2v.445c0,.372-.033.485-.2.647-.194.2-.21.2-1.739.2s-1.545,0-1.739-.2c-.17-.162-.2-.275-.2-.647v-.445H538.44v5.176h14.234v-2.912c0-1.6-.008-2.912-.016-2.912A2.06,2.06,0,0,0,552.391,201.8Z" transform="translate(-520.324 -177.054)"/><path class="a" d="M131.64,223.527v3.4H140.7V220.13H139.4v1.294H138.11V220.13h-6.47Z" transform="translate(-127.758 -194.897)"/><path class="a" d="M85.893,451.422a.464.464,0,0,0,.307.809.584.584,0,0,0,.5-.485.459.459,0,0,0-.809-.323Z" transform="translate(-83.466 -417.939)"/><path class="a" d="M409.473,451.422a.464.464,0,0,0,.307.809.584.584,0,0,0,.5-.485.459.459,0,0,0-.809-.323Z" transform="translate(-395.724 -417.939)"/></g></g></svg>