<svg xmlns="http://www.w3.org/2000/svg" width="37.25" height="29.8" viewBox="0 0 37.25 29.8"><defs><style>.a{fill:#a1a9b3;}</style></defs><g transform="translate(-10 -108)"><path class="a" d="M33.144,121.756l1.813-.186a2.5,2.5,0,0,0-.125.756,1.941,1.941,0,1,0,3.862,0,2.238,2.238,0,0,0-.3-1.118l6-.635,2.855-1.292H33.182a5.8,5.8,0,0,0-.7-1.676h2.855l2.174-1.106H31.632a5.268,5.268,0,0,0-2.049-1.353L28.959,108H28.45l-.46,7.154a4.922,4.922,0,0,0-2.087,1.353H19.9l2.186,1.106h2.991a5.768,5.768,0,0,0-.684,1.676H10l3.018,1.479,5.933.559a2.265,2.265,0,0,0-.224,1.007,2.035,2.035,0,0,0,1.923,2.136,2.047,2.047,0,0,0,1.939-2.136,2.391,2.391,0,0,0-.1-.669l1.961.186A4.621,4.621,0,0,0,28.8,125.39,4.618,4.618,0,0,0,33.144,121.756Z" transform="translate(0 0)"/><path class="a" d="M10,640.632H24.949l2.718-9.932H22.912Z" transform="translate(0 -502.832)"/><path class="a" d="M510.5,630.7l2.718,9.932h14.265L514.571,630.7Z" transform="translate(-481.476 -502.832)"/></g></svg>